<svg xmlns="http://www.w3.org/2000/svg" width="86.489" height="60.542" viewBox="0 0 86.489 60.542">
  <path id="dumbbell-solid" d="M14.054,40.649H7.568a3.249,3.249,0,0,0-3.243,3.243V57.947A4.325,4.325,0,0,0,4.2,66.6L4.324,80.65a3.24,3.24,0,0,0,3.243,3.243h6.487A3.236,3.236,0,0,0,17.3,80.65V43.892A3.244,3.244,0,0,0,14.054,40.649ZM61.623,32H55.137a3.249,3.249,0,0,0-3.243,3.243v22.7H34.6v-22.7A3.24,3.24,0,0,0,31.352,32H24.866a3.249,3.249,0,0,0-3.243,3.243V89.3a3.244,3.244,0,0,0,3.243,3.243h6.487A3.236,3.236,0,0,0,34.6,89.3V66.6h17.3V89.3a3.244,3.244,0,0,0,3.243,3.243h6.487A3.244,3.244,0,0,0,64.867,89.3V35.243A3.24,3.24,0,0,0,61.623,32ZM82.165,57.947V43.892a3.244,3.244,0,0,0-3.243-3.243H72.434a3.253,3.253,0,0,0-3.243,3.243V80.65a3.244,3.244,0,0,0,3.243,3.243h6.487a3.244,3.244,0,0,0,3.243-3.243V66.6a4.324,4.324,0,1,0,0-8.649Z" transform="translate(0 -32)"/>
</svg>
